<?xml version="1.0" encoding="utf-8"?>
<!DOCTYPE svg PUBLIC "-//W3C//DTD SVG 1.0//EN" "http://www.w3.org/TR/2001/REC-SVG-20010904/DTD/svg10.dtd">
<svg version="1.0" xmlns="http://www.w3.org/2000/svg" width="1536px" height="1536px" viewBox="0 0 1536 1536" preserveAspectRatio="xMidYMid meet">
 <g fill="#d0c8bc">
  <path d="M 0 768 l 0 -768 768 0 768 0 0 768 0 768 -768 0 -768 0 0 -768 z  m 334.5 425.6 c 13 -9.7 28.1 -25.7 37.8 -40.3 18.4 -27.4 28.6 -56.4 32.8 -92.3 2.6 -23 -0.9 -64.5 -9.1 -106.5 -14.7 -75.3 -17.5 -91.2 -21.5 -123 -3.7 -29.2 -4.8 -53.3 -4.2 -85 1.1 -49.8 6.6 -86.8 19.7 -132.5 3.6 -12.4 12.6 -39 16 -47 1.7 -4.1 3.7 -9.1 4.4 -11 0.8 -2 5 -11.1 9.4 -20.2 29.7 -61.8 71.2 -111.1 118.8 -140.9 36.9 -23.3 77.7 -34.9 122.2 -34.9 52.4 0 96.1 18.9 127.4 55.3 4.6 5.4 5.8 7.4 5.8 10.2 0 4.1 -2.4 5.7 -12.4 8 -21 4.9 -98.7 10.9 -111.1 8.6 -7 -1.2 -17.4 -6.4 -25.4 -12.5 -8.4 -6.4 -19.9 -14 -26.1 -17.1 -8.5 -4.4 -16.2 -3.7 -29.7 2.5 -2.4 1.1 -4.5 2 -4.7 2 -1.9 0 -23.3 11 -28.1 14.5 -9.3 6.6 -9.7 7.7 -1.8 4.8 3.7 -1.3 9.8 -3.1 13.6 -3.9 6.9 -1.4 25.9 -1.9 31.6 -0.8 3.1 0.7 3.1 0.7 2.9 10.8 -0.3 15.7 4.2 26.9 14.5 36.2 12.1 11 27.9 12.4 42.9 4 2 -1.2 7.1 -4.8 11.3 -8.1 12.8 -10.1 16.1 -11.5 27.4 -11.5 19.8 0 30.5 3.5 39.4 12.9 9.1 9.5 12.7 19 12.7 33.5 0 20.5 -8.8 37.7 -25.6 50.5 -3.8 2.8 -13 8.1 -20.4 11.8 -37.7 18.4 -47 23.5 -63 34.8 -32 22.7 -59.8 51.1 -83.1 85 -15.1 21.9 -30 53.4 -38.2 81 -17.4 57.8 -17.4 106.6 -0.1 169.7 4.9 18.1 28.2 87.3 28.3 84.4 0.1 -0.5 -0.6 -5.4 -1.4 -11 -5.8 -39.5 -9.4 -75.8 -10.2 -101.6 -1.5 -54.7 5.8 -103.9 21.5 -145 5.8 -15 6.8 -17.3 12.7 -29.2 14.2 -28.3 30.9 -51.1 55.5 -75.9 23.7 -23.8 42.7 -37.7 70.5 -51.4 30.3 -14.9 58.1 -21.8 98.7 -24.7 22.6 -1.6 90.7 -1.5 111.3 0.1 34.3 2.7 63.1 9.5 84 19.9 24.3 12 37.1 25.7 46.1 49.2 2.7 6.9 7.4 28.6 7.4 34.1 0 3.4 0 3.4 1.6 -0.1 0.9 -1.9 1.9 -4.2 2.4 -5.1 1.1 -2.2 4.8 -15.4 6 -21.9 2.8 -14.5 0.5 -40.6 -5.1 -57.4 -2 -5.8 -8.8 -20.5 -12.7 -27.2 -3.7 -6.4 -12.2 -17.1 -18.4 -23 -13.3 -12.8 -26.3 -20.7 -57.3 -34.9 -28 -12.8 -39.4 -18.9 -59.5 -32 -31.8 -20.8 -55.4 -43.5 -73.5 -71.1 -22.2 -33.9 -39.3 -50.6 -68 -66.6 -22 -12.3 -49.7 -21.1 -77.9 -24.9 -13.9 -1.8 -49.3 -0.7 -63.6 2 -30.9 5.9 -52.1 12.6 -74.5 23.6 -41.2 20.2 -81.4 54.6 -113.5 97 -53 69.9 -86.2 160.5 -96.5 264 -4 39.5 -2.6 90.3 3.5 130.5 0.6 3.6 1.9 12.8 3.1 20.5 1.1 7.7 5.6 31.8 9.9 53.5 13.1 65.8 17.5 94.6 18.6 122 0.7 16.9 -0.8 43.2 -3.2 57.5 -3 17.7 -9.8 41.5 -15.5 54.2 -1 2.4 -1.9 4.6 -1.9 5 0 0.4 -2.3 5.2 -5.1 10.7 -4.8 9.5 -14.5 24.7 -20.7 32.5 -2.7 3.5 -2.7 3.5 0.3 1.6 1.7 -1.1 6.6 -4.6 11 -7.9 z  m 913.3 -12.3 c -6.5 -9.2 -22.4 -24.7 -34.8 -34 -20.4 -15.3 -47.3 -27.5 -74.5 -33.8 -31.4 -7.3 -55.5 -9.8 -109 -11.5 -46.9 -1.5 -79.4 -4.5 -103.9 -9.5 -66.6 -13.8 -133.1 -52.2 -178.5 -103.1 -23.7 -26.4 -36.4 -45 -50.6 -73.9 -16.7 -33.8 -26.1 -64.3 -29.5 -96.3 -1.6 -14.3 -0.8 -48.2 1.4 -61 4 -23 12.5 -38.1 25.1 -44.3 4.9 -2.3 5.8 -2.4 35 -3 33.1 -0.7 38.7 -1.4 58 -7.6 18 -5.8 29.8 -12 61 -32.5 43.3 -28.3 72.8 -37.9 117.2 -37.8 10.4 0.1 20.8 0.5 23.3 1 2.5 0.4 4.6 0.7 4.8 0.5 0.5 -0.5 -10.8 -6.4 -17.2 -8.9 -26.1 -10.4 -60.5 -13.9 -86.4 -8.8 -22.2 4.5 -39.9 12.1 -67.9 29.5 -20.1 12.5 -30.3 17.7 -42.6 21.9 -14.7 4.9 -27.7 6.8 -46.6 6.8 -36.1 0.1 -50.4 3 -72.1 15.1 -21.2 11.8 -44 35.7 -57.5 60.1 -3.9 7.2 -3.9 7.2 6 -2.8 11.6 -11.7 22.4 -19.4 27.2 -19.4 3 0 3.3 0.3 3.3 2.9 0 1.7 -1.3 6.9 -2.9 11.8 -14.9 44.7 -8.5 106.8 17.5 168.3 15.6 37.2 45.9 82.3 74.6 111.1 56.7 57 131.2 96.7 204.5 108.9 26.9 4.5 43.8 5.6 116.3 8 60.9 2 87.9 5.2 126.5 15 26.1 6.6 56.3 18.8 70 28.4 2.8 1.9 5.1 3.5 5.3 3.5 0.2 0.1 -1.2 -2 -3 -4.6 z "/>
  <path d="M 1013.8 606.2 c -0.1 -0.4 -4.1 -3.7 -8.8 -7.2 -4.7 -3.6 -8.9 -7.2 -9.4 -8 -0.4 -0.8 -4.6 -5.2 -9.1 -9.7 -9 -8.8 -6.2 -7.3 -59.5 -33.1 -47.2 -22.8 -94.6 -56.3 -117.4 -82.9 -7.1 -8.3 -7.1 -8.3 -15.1 -7.8 -4.4 0.2 -11.5 0.7 -15.8 1.1 -7.8 0.7 -7.8 0.7 -7.5 -3.1 0.3 -3.7 0.3 -3.7 7.4 -5.5 7.3 -1.9 16 -5.8 20.3 -9.1 1.5 -1.2 4 -1.9 6.6 -1.9 3.8 0 4.6 0.4 7.1 3.8 4.4 5.9 21.1 22.8 30.4 30.6 33.7 28.6 67.4 49.3 117.5 72.1 9.4 4.3 18.2 8.6 19.7 9.6 1.4 1.1 2.9 1.9 3.3 1.9 0.3 0 4 2.5 8 5.6 8.8 6.6 15.2 13.4 21.3 22.9 2.5 3.9 5.6 8.6 6.9 10.6 1.3 2.1 2.3 5 2.3 7.2 0 3.6 -0.1 3.7 -3.9 3.7 -2.2 0 -4.1 -0.4 -4.3 -0.8 z "/>
  <path d="M 628.3 466.6 c -2.5 -2.2 -2.8 -3.1 -3.1 -10.4 -0.4 -7.6 -0.3 -8 2.3 -10 4.5 -3.6 11.8 -3 21 1.5 7.3 3.6 7.5 3.8 7.5 7.4 0 3 -0.9 4.6 -4.8 8.8 -4.8 5.1 -4.8 5.1 -12.4 5.1 -6.7 0 -8.1 -0.3 -10.5 -2.4 z "/>
 </g>
 <g fill="#101c1d">
  <path d="M 307 1214.3 c 0 -0.5 4.1 -5.9 9 -12.2 11.6 -14.7 18.6 -25.2 24.9 -37.7 2.8 -5.5 5.1 -10.3 5.1 -10.7 0 -0.4 0.9 -2.6 1.9 -5 16.2 -36.1 22.4 -86.2 16.5 -134.2 -2.3 -19.2 -7.9 -51.1 -16.4 -93.5 -4.3 -21.7 -8.8 -45.6 -9.9 -53 -1.1 -7.4 -2.3 -15.1 -2.6 -17 -8.1 -53.8 -8.4 -114.3 -1 -166.5 10.5 -73.1 31.7 -137.5 63 -191.5 21.7 -37.4 41.7 -63.6 68.7 -89.4 39.6 -38 80.3 -61.4 126.2 -72.6 25.9 -6.2 33.4 -7.2 59.7 -7.7 15.8 -0.3 27.8 -0.1 33.5 0.6 28.2 3.8 55.9 12.6 77.9 24.9 28.7 16 45.8 32.7 68 66.6 18.1 27.6 41.7 50.3 73.5 71.1 20.1 13.1 31.5 19.2 59.5 32 38.5 17.6 54.1 28.4 68.4 47.5 6.1 8.3 6.7 9.2 12.2 19.5 14.2 27.1 18.3 63.1 10.3 92.3 -1.4 5.2 -2.9 10.2 -3.3 11.1 -0.5 0.9 -2.8 5.6 -5.2 10.6 l -4.4 8.9 -0.6 -11.4 c -1.6 -29 -12.2 -55.1 -28.1 -69.5 -22.3 -20.2 -59.3 -32.6 -108.8 -36.6 -20.1 -1.6 -83.6 -1.7 -105.8 -0.1 -40.6 2.8 -68.4 9.8 -98.7 24.7 -27.8 13.7 -46.8 27.6 -70.5 51.4 -24.6 24.8 -41.3 47.6 -55.5 75.9 -5.9 11.9 -6.9 14.2 -12.7 29.2 -18.3 47.7 -25.5 109.7 -19.8 170.5 1.3 13.4 7.4 63.2 9.5 77 3.3 21.7 5.3 45.8 3.6 43.9 -0.5 -0.5 -2.1 -6.3 -3.6 -12.9 -1.6 -6.6 -5.5 -19.4 -8.7 -28.5 -26.6 -74.6 -35.1 -108.1 -37.9 -150 -3.6 -54.9 11.2 -115.5 40.8 -167.4 21 -36.7 56.2 -74.8 93.3 -101.1 16 -11.3 25.3 -16.4 63 -34.8 22.5 -11 34.7 -22.2 41.1 -37.6 8.4 -20 5.7 -38.1 -7.8 -52.2 -8.4 -8.9 -19.7 -12.9 -36.4 -12.9 -7.9 0 -12.7 2.2 -24.4 11.5 -13.7 10.9 -21.3 13.9 -34.4 13.8 -10.8 -0.1 -18.4 -3 -25.8 -9.7 -10.2 -9.2 -14.7 -20.5 -14.7 -36.3 0 -10.1 0 -10.1 -2.9 -10.7 -10 -2 -25.6 0 -40.7 5.3 -16.7 5.8 -20.3 5.1 -12.9 -2.6 6.7 -6.8 15.4 -12.7 27.3 -18.2 5.9 -2.8 10.9 -5.1 11.2 -5.1 0.2 0 2.3 -0.9 4.7 -2 9.1 -4.2 14.2 -5.4 22.2 -5.4 6.9 -0.1 8.8 0.3 13.5 2.8 6.3 3.3 17.9 10.9 26.1 17.2 8 6.1 18.4 11.3 25.4 12.5 6.4 1.2 16.9 0.8 47 -1.7 38.7 -3.2 60.9 -6.5 67.6 -9.9 2.6 -1.4 2.8 -1.8 1.8 -3.8 -2.6 -4.7 -26.6 -27.4 -35 -32.9 -43.3 -28.7 -98.6 -35.3 -156.6 -18.7 -70.6 20.3 -134 80.5 -175.5 166.7 -4.4 9.1 -8.6 18.2 -9.4 20.2 -0.7 1.9 -2.7 6.9 -4.4 11 -5.6 13.2 -14.8 41.8 -20.6 64 -15.4 58.7 -19.3 127.7 -10.9 194.5 4 31.8 6.8 47.7 21.5 123 5.8 29.8 9.1 57.5 9.7 80.5 0.6 23.4 -0.2 34.4 -4.2 54.6 -10.8 54.8 -45.8 102.5 -92.2 125.8 -2.9 1.5 -5.3 2.3 -5.3 1.9 z  m 712 -611 c 0 -0.4 -1 -2.3 -2.3 -4.2 -1.3 -2 -4.4 -6.7 -6.9 -10.6 -6.1 -9.5 -12.5 -16.3 -21.3 -22.9 -4 -3.1 -7.7 -5.6 -8 -5.6 -0.4 0 -1.9 -0.8 -3.3 -1.9 -1.5 -1 -10.3 -5.3 -19.7 -9.6 -50.1 -22.8 -83.8 -43.5 -117.5 -72.1 -8.9 -7.5 -25.4 -24.1 -30.7 -30.9 -3.2 -4 -3.2 -4 -6 -2.3 -7 4.3 -17 8.8 -22.2 9.9 -7.7 1.7 -9.1 3.3 -2.1 2.4 3 -0.3 6.9 -0.8 8.5 -1.1 6.5 -0.9 -1.1 1.4 -10.2 3.2 -9.2 1.7 -9.2 1.7 -4.9 7.8 9.8 13.9 13 25.2 13 45.6 0 12.3 -0.3 15.5 -2.2 21.5 -3.1 9.5 -6.8 16.5 -12.5 23.6 -2.6 3.2 -4.2 5.9 -3.5 5.9 0.7 0 4 -0.5 7.3 -1 12.8 -2.1 60.1 -3.2 90.5 -2.1 51.6 1.9 83.4 6.4 111 15.7 12.6 4.3 17.8 7 20.7 11.1 1.5 2.1 6.6 6.7 11.5 10.3 4.8 3.6 8.7 6.8 8.8 7.3 0 0.9 2 0.9 2 0 z  m -370.8 -142.4 c 2.6 -2.8 4.8 -5.4 4.8 -5.8 0 -1.1 -14.9 -8.1 -17.4 -8.1 -1.3 0 -3.6 1 -5.1 2.2 -2.5 1.9 -2.7 2.6 -2.2 7.2 0.6 6.6 3.8 9.6 10.5 9.6 4.2 0 5 -0.4 9.4 -5.1 z "/>
  <path d="M 829.3 541 c -10.3 -2.2 -18.7 -9.6 -19.9 -17.5 -1.4 -9.8 0.9 -16.4 7.4 -21 4.1 -2.8 4.9 -3 13 -2.9 14.5 0.1 25.4 5.5 40 19.8 7.3 7.1 8.2 8.4 8.2 11.7 0 4 -0.8 4.6 -11.5 8.1 -6.8 2.2 -30.1 3.3 -37.2 1.8 z  m 14.7 -15.5 c 0 -0.3 -2.4 -2.1 -5.4 -4.1 -4.6 -3 -5.8 -3.4 -7.5 -2.4 -2.7 1.4 -2.6 1.4 0.6 3.6 3.6 2.3 12.3 4.4 12.3 2.9 z "/>
  <path d="M 1260 1197.9 c -7 -6.1 -24.8 -17.3 -35.5 -22.4 -27.8 -13.4 -66.9 -24.1 -104.2 -28.5 -23.9 -2.8 -39.6 -3.8 -74.3 -5 -72.5 -2.4 -89.4 -3.5 -116.3 -8 -83.2 -13.8 -171.7 -65.6 -224.6 -131.4 -18.8 -23.4 -28.7 -38.2 -42 -63.1 -16.5 -30.6 -27.6 -62.6 -34 -97.7 -3.3 -17.9 -4.4 -32.9 -3.8 -53.2 0.5 -20.8 2.5 -33 7.7 -48.6 1.5 -4.7 2.7 -8.6 2.6 -8.7 -0.6 -0.7 -14.4 9.5 -20.1 14.9 -7.8 7.2 -18.3 20.1 -22.6 27.5 -3 5.2 -4.6 6.9 -5.5 6.1 -1.1 -1.2 5.3 -19.4 10.2 -28.8 13.9 -26.6 36.9 -51.3 59.4 -63.9 21.7 -12.1 36 -15 72.1 -15.1 18.9 0 31.9 -1.9 46.6 -6.8 12.3 -4.2 22.5 -9.4 42.6 -21.9 27.8 -17.2 45.9 -25.1 67 -29.2 33.6 -6.5 74.5 -1.5 102 12.5 7.1 3.6 21.2 13.3 20.4 14.1 -0.2 0.2 -6.6 -0.8 -14.1 -2.2 -10.9 -2 -16.9 -2.5 -29.2 -2.5 -40.9 0 -71.9 10.3 -113.9 37.8 -31.2 20.5 -43 26.7 -61 32.5 -20.4 6.6 -32 8 -64.5 8.1 -22.8 0.1 -23.6 0.2 -28.5 2.5 -12.6 6.3 -21.2 21.4 -25 44.3 -2.2 12.9 -3.1 41.8 -1.6 54.8 3.6 32.5 12.9 62.7 29.6 96.5 14.2 28.9 26.9 47.5 50.6 73.9 34.4 38.6 81.7 70.6 131.9 89.4 43.3 16.2 78.4 21.3 165 23.7 37.8 1.1 65.9 4.4 94.5 11 51.7 12 94.5 41.6 118.9 82.3 2.1 3.4 3.6 6.6 3.4 7.2 -0.2 0.5 -1.9 -0.5 -3.8 -2.1 z "/>
 </g>
 <g fill="#da5528">
  <path d="M 990 585 c -26.8 -13.9 -64.4 -20.7 -126.5 -23 -42.1 -1.6 -84.9 0.6 -109.5 5.6 -3.8 0.8 -4.1 1 7.5 -8 1.7 -1.3 4.9 -4.7 7.1 -7.7 10 -13 13.8 -24.4 13.8 -40.9 0 -20.2 -5.8 -35.7 -18.7 -49.7 -3.8 -4.1 -3.8 -4.1 -0.7 -4.8 1.7 -0.4 6.5 -0.8 10.8 -1 4.2 -0.2 12.8 -0.8 19.1 -1.4 11.4 -1.2 11.4 -1.2 15 3.1 25.2 30 72 63.8 122.1 88 50.4 24.4 50.3 24.4 57.8 31.3 7.1 6.5 12.1 12.6 10.5 12.4 -0.4 0 -4.2 -1.8 -8.3 -3.9 z  m -126.3 -48.9 c 6.9 -2.2 11.3 -4.2 11.3 -5 0 -1.5 -17 -17.1 -22 -20.3 -5.9 -3.8 -14.2 -7.1 -20.2 -8.2 -12 -2.2 -22.9 8.8 -19.9 20 1.8 6.7 10.3 13.5 19.4 15.4 6.4 1.4 24.6 0.3 31.4 -1.9 z "/>
  <path d="M 834.4 528.1 c -8.3 -2.1 -12 -8.3 -7 -11.6 3.9 -2.6 8 -2.1 13.3 1.4 7.7 5 10.7 8.1 9.4 9.4 -1.3 1.3 -11.5 1.9 -15.7 0.8 z "/>
 </g>
</svg>